# xmcd
#
# Track frame offsets:
#	150
#	17770
#	37835
#	56185
#	74420
#	91832
#	108945
#	127952
#	146632
#	164240
#
# Disc length: 2397 seconds
# Revision: 3
# Processed by: cddbd v1.5.2PL0 Copyright (c) Steve Scherf et al.
# Submitted via: dBpowerAMP V12.0
#
DISCID=89095b0a
DTITLE=Willie Nelson - Without A Song
DYEAR=1983
DGENRE=Country
TTITLE0=Without A Song
TTITLE1=Once In A While
TTITLE2=Autumn Leaves
TTITLE3=I Can't Begin To Tell You
TTITLE4=Harbor Lights
TTITLE5=Golden Earrings
TTITLE6=You'll Never Know
TTITLE7=To Each His Own
TTITLE8=As Time Goes By (with Julio Iglesias)
TTITLE9=Dreamer's Holiday
EXTD=
EXTT0=
EXTT1=
EXTT2=
EXTT3=
EXTT4=
EXTT5=
EXTT6=
EXTT7=
EXTT8=
EXTT9=
PLAYORDER=
